<svg width="24" height="24" viewBox="0 0 24 24" fill="none" xmlns="http://www.w3.org/2000/svg">
<path fill-rule="evenodd" clip-rule="evenodd" d="M11.6913 18.0686C15.2132 18.0686 18.0684 15.2135 18.0684 11.6915C18.0684 8.16956 15.2132 5.31445 11.6913 5.31445C8.16933 5.31445 5.31422 8.16956 5.31422 11.6915C5.31422 15.2135 8.16933 18.0686 11.6913 18.0686ZM11.6913 15.9429C14.0392 15.9429 15.9427 14.0395 15.9427 11.6915C15.9427 9.34355 14.0392 7.44014 11.6913 7.44014C9.34332 7.44014 7.43991 9.34355 7.43991 11.6915C7.43991 14.0395 9.34332 15.9429 11.6913 15.9429Z" fill="white"/>
<path d="M18.0684 4.25098C17.4813 4.25098 17.0055 4.72683 17.0055 5.31382C17.0055 5.90081 17.4813 6.37667 18.0684 6.37667C18.6554 6.37667 19.1312 5.90081 19.1312 5.31382C19.1312 4.72683 18.6554 4.25098 18.0684 4.25098Z" fill="white"/>
<path fill-rule="evenodd" clip-rule="evenodd" d="M0.695058 3.48194C0 4.84607 0 6.63182 0 10.2033V13.1793C0 16.7507 0 18.5365 0.695058 19.9006C1.30645 21.1005 2.28201 22.0761 3.48194 22.6875C4.84607 23.3826 6.63182 23.3826 10.2033 23.3826H13.1793C16.7507 23.3826 18.5365 23.3826 19.9006 22.6875C21.1005 22.0761 22.0761 21.1005 22.6875 19.9006C23.3826 18.5365 23.3826 16.7507 23.3826 13.1793V10.2033C23.3826 6.63182 23.3826 4.84607 22.6875 3.48194C22.0761 2.28201 21.1005 1.30645 19.9006 0.695058C18.5365 0 16.7507 0 13.1793 0H10.2033C6.63182 0 4.84607 0 3.48194 0.695058C2.28201 1.30645 1.30645 2.28201 0.695058 3.48194ZM13.1793 2.12569H10.2033C8.38249 2.12569 7.14471 2.12735 6.18797 2.20551C5.25602 2.28165 4.77944 2.41966 4.44698 2.58906C3.64703 2.99666 2.99666 3.64703 2.58906 4.44698C2.41966 4.77944 2.28165 5.25602 2.20551 6.18797C2.12735 7.14471 2.12569 8.38249 2.12569 10.2033V13.1793C2.12569 15.0001 2.12735 16.2378 2.20551 17.1946C2.28165 18.1266 2.41966 18.6032 2.58906 18.9356C2.99666 19.7355 3.64703 20.3859 4.44698 20.7935C4.77944 20.9629 5.25602 21.101 6.18797 21.1771C7.14471 21.2552 8.38249 21.2569 10.2033 21.2569H13.1793C15.0001 21.2569 16.2378 21.2552 17.1946 21.1771C18.1266 21.101 18.6032 20.9629 18.9356 20.7935C19.7355 20.3859 20.3859 19.7355 20.7935 18.9356C20.9629 18.6032 21.101 18.1266 21.1771 17.1946C21.2552 16.2378 21.2569 15.0001 21.2569 13.1793V10.2033C21.2569 8.38249 21.2552 7.14471 21.1771 6.18797C21.101 5.25602 20.9629 4.77944 20.7935 4.44698C20.3859 3.64703 19.7355 2.99666 18.9356 2.58906C18.6032 2.41966 18.1266 2.28165 17.1946 2.20551C16.2378 2.12735 15.0001 2.12569 13.1793 2.12569Z" fill="white"/>
</svg>
