<svg width="24" height="24" viewBox="0 0 24 24" fill="none" xmlns="http://www.w3.org/2000/svg">
<path d="M21.3695 0H1.70276C1.69661 0 1.68968 0 1.68199 0C0.759433 0 0.0107721 0.761516 0 1.70551V21.9852C0.0107721 22.93 0.759433 23.6923 1.68199 23.6923C1.68968 23.6923 1.69661 23.6923 1.7043 23.6923H21.3672C21.3734 23.6923 21.3811 23.6923 21.3888 23.6923C22.3121 23.6923 23.0623 22.9316 23.0769 21.9868V21.9852V1.70709C23.0623 0.761516 22.3121 0 21.388 0C21.3803 0 21.3734 0 21.3657 0H21.3695ZM6.84413 20.1896H3.41706V8.88461H6.84413V20.1896ZM5.13137 7.33788C4.03492 7.33788 3.14699 6.42549 3.14699 5.30059C3.14699 4.1757 4.03569 3.2633 5.13137 3.2633C6.22704 3.2633 7.11574 4.17491 7.11574 5.2998C7.11574 5.30059 7.11574 5.30138 7.11574 5.30296C7.11574 6.42707 6.22781 7.33867 5.13291 7.33867C5.13214 7.33867 5.13137 7.33867 5.1306 7.33867L5.13137 7.33788ZM19.6599 20.1896H16.2428V14.6924C16.2428 13.381 16.2166 11.6945 14.4623 11.6945C12.6803 11.6945 12.4087 13.1211 12.4087 14.596V20.1904H8.99162V8.8854H12.274V10.4266H12.3187C12.9558 9.32462 14.1084 8.59786 15.4264 8.59786C15.4734 8.59786 15.5195 8.59865 15.5657 8.60023H15.5588C19.0212 8.60023 19.6614 10.9401 19.6614 13.9853V20.1904L19.6599 20.1896Z" fill="white"/>
</svg>
