<svg width="24" height="17" viewBox="0 0 24 17" fill="none" xmlns="http://www.w3.org/2000/svg">
<path fill-rule="evenodd" clip-rule="evenodd" d="M9.33951 11.2074V4.64647C11.6687 5.74244 13.4726 6.80118 15.6061 7.94264C13.8464 8.91852 11.6687 10.0135 9.33951 11.2074ZM22.3199 1.38341C21.9181 0.854077 21.2333 0.442035 20.5043 0.305621C18.3615 -0.101295 4.99333 -0.102452 2.85168 0.305621C2.26707 0.415215 1.74649 0.68012 1.29929 1.0917C-0.584988 2.8406 0.00545537 12.2194 0.45964 13.7386C0.650629 14.3962 0.897529 14.8705 1.20847 15.1818C1.60908 15.5933 2.15759 15.8767 2.78762 16.0038C4.55195 16.3687 13.6414 16.5728 20.467 16.0586C21.0959 15.949 21.6525 15.6565 22.0916 15.2274C23.8338 13.4855 23.715 3.58003 22.3199 1.38341Z" fill="white"/>
</svg>
